<?xml version="1.0" encoding="utf-8"?>
<!-- Svg Vector Icons : http://www.onlinewebfonts.com/icon -->
<!DOCTYPE svg PUBLIC "-//W3C//DTD SVG 1.1//EN" "http://www.w3.org/Graphics/SVG/1.1/DTD/svg11.dtd">
<svg version="1.1" xmlns="http://www.w3.org/2000/svg" xmlns:xlink="http://www.w3.org/1999/xlink" x="0px" y="0px" viewBox="0 0 1000 1000" enable-background="new 0 0 1000 1000" xml:space="preserve">
<metadata> Svg Vector Icons : http://www.onlinewebfonts.com/icon </metadata>
<g><path d="M829.7,134.7C740.5,59,624.7,10,500,10C228.3,10,10,228.3,10,500h89.1C99.1,277.3,277.3,99.1,500,99.1c102.5,0,196,35.7,262.8,98l-75.7,71.3l267.3,49L914.3,50.1L829.7,134.7z M179.3,869.7C268.3,945.5,379.7,990,500,990c271.7,0,490-218.3,490-490h-89.1c0,222.7-178.2,400.9-400.9,400.9c-98,0-187.1-35.7-253.9-89.1l84.7-80.2l-267.3-49l40.1,267.3L179.3,869.7z"/></g>
</svg>